<svg xmlns="http://www.w3.org/2000/svg" width="18" height="18"
                                                            viewBox="0 0 24 24" fill="none">
                                                            <g clip-path="url(#clip0_2808_4122)">
                                                                <path
                                                                    d="M22.4386 9.18956C22.1973 8.29242 21.8384 7.42622 21.3682 6.60951C21.3187 6.52289 21.3001 6.41771 21.3125 6.31872L21.5847 4.62343L19.3759 2.41462L17.6806 2.68685C17.5816 2.70541 17.4764 2.68685 17.3898 2.63117C16.5731 2.16094 15.7069 1.80209 14.8098 1.56079C14.7108 1.53604 14.6242 1.47417 14.5623 1.39374L13.56 0.0078125H10.4355L9.43314 1.39374C9.37127 1.47417 9.28465 1.53604 9.18565 1.56079C8.28851 1.80209 7.42231 2.16094 6.60561 2.63117C6.51899 2.68067 6.4138 2.69923 6.31481 2.68685L4.61953 2.41462L2.41071 4.62343L2.68295 6.31872C2.70151 6.41771 2.68295 6.52289 2.62726 6.60951C2.15704 7.42622 1.79818 8.29242 1.55688 9.18956C1.53213 9.28855 1.47026 9.37517 1.38983 9.43705L0.00390625 10.4394V13.5639L1.38983 14.5662C1.47026 14.6281 1.53213 14.7147 1.55688 14.8137C1.79818 15.7108 2.15704 16.577 2.62726 17.3937C2.67676 17.4804 2.69532 17.5855 2.68295 17.6845L2.41071 19.3798L4.61953 21.5886L6.31481 21.3164C6.41999 21.2978 6.51899 21.3164 6.60561 21.3721C7.42231 21.8423 8.28851 22.2012 9.18565 22.4425C9.28465 22.4672 9.37127 22.5291 9.43314 22.6095L10.4355 23.9954H13.56L14.5623 22.6095C14.6242 22.5291 14.7108 22.4672 14.8098 22.4425C15.7069 22.2012 16.5731 21.8423 17.3898 21.3721C17.4764 21.3226 17.5816 21.304 17.6806 21.3164L19.3759 21.5886L21.5847 19.3798L21.3125 17.6845C21.2939 17.5855 21.3125 17.4804 21.3682 17.3937C21.8384 16.577 22.1973 15.7108 22.4386 14.8137C22.4633 14.7147 22.5252 14.6281 22.6056 14.5662L23.9915 13.5639V10.4394L22.6056 9.43705C22.519 9.37517 22.4633 9.28855 22.4386 9.18956ZM11.9946 18.427C8.44938 18.427 5.56616 15.5438 5.56616 11.9985C5.56616 8.45329 8.44938 5.57007 11.9946 5.57007C15.5399 5.57007 18.4231 8.45329 18.4231 11.9985C18.4231 15.5438 15.5399 18.427 11.9946 18.427Z"
                                                                    fill="white" />
                                                                <path
                                                                    d="M16.7906 9.23837C16.3018 8.39692 15.6027 7.69777 14.7612 7.20898C14.291 8.29174 13.2083 9.02801 12.0018 9.02801C10.7953 9.02801 9.70632 8.28555 9.24228 7.20898C8.40083 7.69777 7.70168 8.39692 7.21289 9.23837C8.29564 9.7086 9.03192 10.7914 9.03192 11.9978C9.03192 13.2043 8.28946 14.2933 7.21289 14.7573C7.70168 15.5988 8.40083 16.2979 9.24228 16.7867C9.7125 15.704 10.7953 14.9677 12.0018 14.9677C13.2083 14.9677 14.2972 15.7101 14.7612 16.7867C15.6027 16.2979 16.3018 15.5988 16.7906 14.7573C15.7079 14.2871 14.9716 13.2043 14.9716 11.9978C14.9716 10.7914 15.7141 9.70241 16.7906 9.23837ZM11.9956 12.994C11.4449 12.994 10.9994 12.5485 10.9994 11.9978C10.9994 11.4472 11.4449 11.0017 11.9956 11.0017C12.5462 11.0017 12.9917 11.4472 12.9917 11.9978C12.9917 12.5485 12.5462 12.994 11.9956 12.994Z"
                                                                    fill="white" />
                                                            </g>
                                                            <defs>
                                                                <clipPath id="clip0_2808_4122">
                                                                    <rect width="24" height="24" fill="white" />
                                                                </clipPath>
                                                            </defs>
                                                        </svg>