<svg xmlns="http://www.w3.org/2000/svg" width="18" height="18"
                                                            viewBox="0 0 20 24" fill="none">
                                                            <g clip-path="url(#clip0_2808_4068)">
                                                                <path
                                                                    d="M18.3369 20.9199V23.9043C18.3367 24.0119 18.2782 24.1082 18.1924 24.1592C18.1011 24.2045 17.9937 24.1989 17.9131 24.1367L16.5049 23.0469L15.1133 24.1309C15.065 24.1648 15.0111 24.1875 14.9521 24.1875H14.9473C14.9044 24.1875 14.8666 24.1761 14.8291 24.1592C14.7379 24.1139 14.6838 24.0119 14.6836 23.9043V20.9199L15.4141 20.8857L16.0107 21.3848C16.1558 21.5039 16.3281 21.5664 16.5107 21.5664C16.6934 21.5664 16.8711 21.5039 17.0107 21.3848L17.6064 20.8857L18.3369 20.9199ZM14.1309 22.5254V22.5205H14.1416L14.1309 22.5254ZM11.8799 16.5693C12.1646 16.7168 12.4819 16.8362 12.8203 16.9609L12.9434 17.3184L12.6748 18.0723C12.5459 18.4409 12.675 18.8605 12.9863 19.0762L13.6201 19.5244L13.8252 20.3018C13.8736 20.4946 13.9858 20.6541 14.1309 20.7676V22.5205H12.793V20.5625C12.7928 20.4038 12.6747 20.2793 12.5244 20.2793C12.3741 20.2793 12.2561 20.4039 12.2559 20.5625V22.5205H3.87402V20.5625C3.87383 20.4039 3.7557 20.2794 3.60547 20.2793C3.45515 20.2793 3.33711 20.4038 3.33691 20.5625V22.5205H0.268555C0.118156 22.5205 0 22.3951 0 22.2363C1.43476e-05 18.1803 1.73579 17.5391 3.26172 16.9775C3.61622 16.8471 3.94969 16.7225 4.24512 16.5693C4.55623 16.8865 4.8886 17.2206 4.98047 17.2949C5.86164 18.004 6.93661 18.3906 8.05957 18.3906C9.18251 18.3906 10.3483 17.9699 11.251 17.2041C11.3158 17.1527 11.59 16.8697 11.8799 16.5693ZM16.3398 13.7041C16.4366 13.6249 16.5762 13.6247 16.6729 13.7041L17.4248 14.334L18.3867 14.2881C18.5101 14.2825 18.6229 14.3677 18.6553 14.4922L18.9131 15.4736L19.7139 16.0352C19.8159 16.1089 19.8584 16.2453 19.8154 16.3701L19.4775 17.3232L19.8154 18.2764C19.8584 18.4012 19.816 18.5376 19.7139 18.6113L18.9131 19.1729L18.6553 20.1543C18.623 20.279 18.5102 20.3697 18.3867 20.3584L17.4248 20.3125L16.6729 20.9424C16.6245 20.9821 16.565 21.0049 16.5059 21.0049C16.4469 21.0048 16.3881 20.982 16.3398 20.9424L15.5869 20.3125L14.625 20.3584C14.5016 20.3638 14.3887 20.2789 14.3564 20.1543L14.0986 19.1729L13.2988 18.6113C13.1967 18.5376 13.1533 18.4012 13.1963 18.2764L13.5352 17.3232L13.1963 16.3701C13.1534 16.2454 13.1968 16.1089 13.2988 16.0352L14.0986 15.4736L14.3564 14.4922C14.3887 14.3677 14.5017 14.2827 14.625 14.2881L15.5869 14.334L16.3398 13.7041ZM16.5059 15.1621C16.3878 15.1622 16.2857 15.2414 16.248 15.3604L15.8721 16.5918H14.6416C14.5288 16.5918 14.4263 16.6709 14.3887 16.79C14.3511 16.909 14.389 17.0336 14.4854 17.1074L15.4795 17.8682L15.0986 19.0986C15.061 19.2178 15.0986 19.3432 15.1953 19.417C15.2919 19.4904 15.4205 19.4904 15.5117 19.417L16.5059 18.6504L17.5 19.417C17.543 19.4566 17.6026 19.4736 17.6562 19.4736L17.667 19.4795C17.7206 19.4794 17.774 19.4558 17.8223 19.4219C17.9189 19.3481 17.9565 19.2236 17.9189 19.1045L17.5381 17.874L18.5312 17.1133C18.628 17.0395 18.6655 16.915 18.6279 16.7959C18.5903 16.6768 18.4883 16.5977 18.3701 16.5977H17.1396L16.7637 15.3604C16.726 15.2414 16.624 15.1621 16.5059 15.1621ZM16.6836 16.96C16.7212 17.0791 16.8232 17.1592 16.9414 17.1592H17.5322L17.0537 17.5273C16.9571 17.6011 16.9194 17.7266 16.957 17.8457L17.1396 18.4404L16.6621 18.0723C16.6191 18.0326 16.5596 18.0156 16.5059 18.0156L16.4951 18.0098C16.4416 18.0098 16.3881 18.0325 16.3398 18.0664L15.8613 18.4355L16.0439 17.8398C16.0816 17.7207 16.044 17.5952 15.9473 17.5215L15.4688 17.1592H16.0605C16.1785 17.159 16.2808 17.0789 16.3184 16.96L16.501 16.3643L16.6836 16.96ZM10.6006 14.7539C10.7349 15.4913 11.0253 15.945 11.4121 16.2627C11.2026 16.4783 11.0254 16.6603 10.9932 16.6943C10.1765 17.426 9.14436 17.8232 8.06445 17.8232C6.98466 17.8231 6.05486 17.4654 5.25977 16.8018C5.19492 16.7503 4.96457 16.5119 4.71777 16.2627C5.1045 15.945 5.395 15.4912 5.5293 14.7539C6.20616 15.4685 7.05462 15.9563 8.03223 15.9678H8.08105C9.06421 15.9678 9.929 15.4856 10.6006 14.7539ZM12.8799 5.76172C13.3956 5.7618 13.8145 6.20448 13.8145 6.74902V7.21973C13.8144 7.76423 13.3956 8.20695 12.8799 8.20703H12.6572C12.9795 8.61532 13.1346 9.16292 13.0566 9.72852C12.9544 10.4885 12.4606 11.0389 11.7783 11.1807C11.4506 12.491 10.9343 13.5632 10.2842 14.2949C9.63947 15.0209 8.88202 15.4062 8.08691 15.4062H8.04395C7.19517 15.3949 6.38931 14.953 5.70703 14.125C5.03541 13.3138 4.51915 12.1617 4.21289 10.7832C3.44468 10.6867 2.89163 10.1932 2.77344 9.47852C2.70769 9.06561 2.80723 8.585 3.12598 8.19629C2.66943 8.13141 2.31645 7.71933 2.31641 7.21973V6.74902C2.31641 6.20455 2.73532 5.76191 3.25098 5.76172H12.8799ZM4.02637 8.20703C3.39632 8.48379 3.24158 9.00889 3.30469 9.38184C3.36915 9.77888 3.70258 10.2106 4.43848 10.2334C4.56196 10.2334 4.66932 10.3294 4.69629 10.4541C5.23895 13.0919 6.55567 14.8112 8.05469 14.834H8.08691C9.4946 14.834 10.7249 13.3134 11.2998 10.8516C11.3266 10.7326 11.4235 10.6472 11.5361 10.6357C12.1699 10.579 12.4608 10.0859 12.5254 9.64355C12.5935 9.14024 12.39 8.48157 11.7822 8.20703H4.02637ZM5.88867 5.20605H3.24023V5.2002C3.32086 4.35503 3.61071 3.54925 4.09961 2.85156C4.50793 2.26165 5.03451 1.77924 5.6416 1.42188L5.88867 5.20605ZM9.34863 0.00390625C9.55268 0.00390625 9.7514 0.0890032 9.875 0.236328C9.97171 0.349785 10.0147 0.486109 10.0039 0.62793L9.70898 5.2002H6.42578L6.13086 0.62207C6.12016 0.480307 6.16847 0.339001 6.27051 0.225586C6.39409 0.083765 6.58733 0.00390625 6.78613 0.00390625H9.34863ZM10.4941 1.37695C11.1012 1.72866 11.6274 2.21694 12.041 2.8125C12.5298 3.52146 12.8202 4.33228 12.8955 5.19434H10.2471L10.4941 1.37695Z"
                                                                    fill="white" />
                                                            </g>
                                                            <defs>
                                                                <clipPath id="clip0_2808_4068">
                                                                    <rect width="20" height="24" fill="white" />
                                                                </clipPath>
                                                            </defs>
                                                        </svg>