<svg xmlns="http://www.w3.org/2000/svg" width="18" height="18"
                                                            viewBox="0 0 22 24" fill="none">
                                                            <g clip-path="url(#clip0_2808_4051)">
                                                                <path
                                                                    d="M13.9743 13.2562C13.4338 12.7154 12.5585 12.7154 12.0181 13.2562L11.8184 13.4561L13.7746 15.4138L13.9743 15.2139C14.5147 14.6731 14.5147 13.7971 13.9743 13.2562Z"
                                                                    fill="white" />
                                                                <path
                                                                    d="M10.4689 2.60313L4.04227 3.06757V3.6437C4.41823 3.7554 4.75895 3.96116 5.04093 4.24335C5.49326 4.69603 5.74586 5.29568 5.74586 5.93648C5.74586 6.57729 5.49913 7.17694 5.04093 7.62961C4.58859 8.08229 3.9894 8.33508 3.34908 8.33508C2.70877 8.33508 2.10957 8.08817 1.65724 7.62961C1.20491 7.17694 0.952308 6.57729 0.952308 5.93648C0.952308 5.29568 1.19903 4.69603 1.65724 4.24335C1.93922 3.96116 2.27993 3.7554 2.6559 3.6437V3.18515C1.52213 3.40267 0.640962 4.36681 0.55872 5.5426L0.00652114 13.0735C-0.0463489 13.8201 0.223876 14.5609 0.758451 15.09L8.58909 22.9266C9.07667 23.4145 9.72874 23.685 10.4219 23.685C11.1151 23.685 11.7613 23.4145 12.2548 22.9266L20.3145 14.8607C20.8021 14.3727 21.0723 13.7202 21.0723 13.0265C21.0723 12.3328 20.8021 11.6861 20.3145 11.1922L20.1559 11.0335C19.4745 11.3275 18.7166 11.4803 17.9295 11.4803C14.769 11.4803 12.1901 8.90534 12.1901 5.7366C12.1901 4.94295 12.3546 4.19632 12.6366 3.50849L12.478 3.34976C11.9434 2.81477 11.2091 2.53847 10.4572 2.59138L10.4689 2.60313ZM12.0256 10.3222C11.7554 10.5926 11.3148 10.5926 11.0446 10.3222C10.5042 9.7813 9.62887 9.7813 9.08842 10.3222L8.88869 10.522L10.8449 12.4797L11.0446 12.2798C12.1196 11.204 13.8761 11.204 14.9629 12.2798C15.4857 12.8031 15.7735 13.4968 15.7735 14.2375C15.7735 14.9783 15.4857 15.6779 14.9629 16.1952L14.7631 16.3951L15.2566 16.8889C15.5268 17.1593 15.5268 17.6003 15.2566 17.8707C15.1215 18.0059 14.9394 18.0765 14.769 18.0765C14.5987 18.0765 14.4107 18.0059 14.2814 17.8707L13.788 17.3769L13.5883 17.5768C13.0654 18.1 12.3722 18.388 11.6321 18.388C10.8919 18.388 10.1928 18.1 9.67587 17.5768C9.40564 17.3063 9.40564 16.8654 9.67587 16.595C9.94609 16.3245 10.3867 16.3245 10.6569 16.595C11.1974 17.1358 12.0726 17.1358 12.6131 16.595L12.8128 16.3951L10.8508 14.4374L10.651 14.6373C9.576 15.7131 7.81954 15.7131 6.73277 14.6373C6.20994 14.1141 5.92209 13.4204 5.92209 12.6796C5.92209 11.9389 6.20994 11.2393 6.73277 10.7219L6.9325 10.522L6.43905 10.0282C6.16882 9.75778 6.16882 9.31686 6.43905 9.04643C6.70927 8.776 7.14985 8.776 7.42008 9.04643L7.91353 9.54026L8.11326 9.34038C9.18829 8.26454 10.9447 8.26454 12.0315 9.34038C12.3017 9.61081 12.3017 10.0458 12.0315 10.3222H12.0256Z"
                                                                    fill="white" />
                                                                <path
                                                                    d="M7.71784 13.6498C8.25829 14.1906 9.13358 14.1906 9.67403 13.6498L9.87376 13.4499L7.91757 11.4922L7.71784 11.6921C7.17739 12.2271 7.17739 13.1089 7.71784 13.6498Z"
                                                                    fill="white" />
                                                                <path
                                                                    d="M2.33789 5.94481C2.33789 6.21524 2.44363 6.46803 2.63161 6.65616C2.8196 6.84428 3.07807 6.9501 3.34242 6.9501C3.60677 6.9501 3.86525 6.84428 4.05323 6.65616C4.24121 6.46803 4.34695 6.20936 4.34695 5.94481C4.34695 5.68026 4.24121 5.42158 4.05323 5.23346C4.05323 5.23346 4.04148 5.2217 4.03561 5.21582V5.94481C4.03561 6.32694 3.72426 6.63852 3.34242 6.63852C2.96058 6.63852 2.64924 6.32694 2.64924 5.94481V5.21582C2.64924 5.21582 2.63749 5.22758 2.63161 5.23346C2.44363 5.42158 2.33789 5.68026 2.33789 5.94481Z"
                                                                    fill="white" />
                                                                <path
                                                                    d="M2.64844 3.19128V5.94261C2.64844 6.32474 2.95978 6.63633 3.34162 6.63633C3.72346 6.63633 4.03481 6.32474 4.03481 5.94261V0.692736C4.03481 0.310606 3.72346 -0.000976562 3.34162 -0.000976562C2.95978 -0.000976562 2.64844 0.310606 2.64844 0.692736V3.19128Z"
                                                                    fill="white" />
                                                                <path
                                                                    d="M17.933 1.38672C15.5363 1.38672 13.5801 3.33852 13.5801 5.743C13.5801 8.14748 15.5304 10.0993 17.933 10.0993C20.3357 10.0993 22.286 8.14748 22.286 5.743C22.286 3.33852 20.3357 1.38672 17.933 1.38672ZM20.5883 4.76122L17.6452 7.70656C17.5101 7.84178 17.328 7.91233 17.1576 7.91233C16.9873 7.91233 16.7993 7.84178 16.67 7.70656L15.2778 6.31326C15.0076 6.04283 15.0076 5.60191 15.2778 5.33148C15.548 5.06105 15.9886 5.06105 16.2588 5.33148L17.1576 6.23095L19.6073 3.77944C19.8775 3.50901 20.3181 3.50901 20.5883 3.77944C20.8585 4.04987 20.8585 4.49079 20.5883 4.76122Z"
                                                                    fill="white" />
                                                                <path
                                                                    d="M17.1595 7.90596C16.9832 7.90596 16.8011 7.83541 16.6719 7.7002C16.807 7.84129 16.9891 7.90596 17.1595 7.90596C17.3298 7.90596 17.5178 7.83541 17.647 7.7002C17.5119 7.84129 17.3298 7.90596 17.1595 7.90596Z"
                                                                    fill="white" />
                                                            </g>
                                                            <defs>
                                                                <clipPath id="clip0_2808_4051">
                                                                    <rect width="22" height="24" fill="white" />
                                                                </clipPath>
                                                            </defs>
                                                        </svg>