<svg width="31" height="33" viewBox="0 0 31 33" fill="none" xmlns="http://www.w3.org/2000/svg">
<g clip-path="url(#clip0_1_1143)">
<path d="M19.4383 18.4698C18.6866 17.7163 17.4692 17.7163 16.7174 18.4698L16.4396 18.7483L19.1605 21.4758L19.4383 21.1973C20.19 20.4438 20.19 19.2234 19.4383 18.4698Z" fill="white"/>
<path d="M14.5604 3.62844L5.62151 4.2755V5.07818C6.14444 5.2338 6.61834 5.52047 7.01054 5.91362C7.63969 6.5443 7.99104 7.37974 7.99104 8.27252C7.99104 9.1653 7.64786 10.0007 7.01054 10.6314C6.38139 11.2621 5.54797 11.6143 4.65735 11.6143C3.76674 11.6143 2.93331 11.2703 2.30416 10.6314C1.67501 10.0007 1.32367 9.1653 1.32367 8.27252C1.32367 7.37974 1.66684 6.5443 2.30416 5.91362C2.69636 5.52047 3.17027 5.2338 3.6932 5.07818V4.43931C2.11624 4.74236 0.890616 6.08562 0.776225 7.72375L0.00817001 18.2159C-0.0653672 19.2561 0.310489 20.2882 1.05403 21.0253L11.9457 31.9434C12.6239 32.6232 13.5308 33 14.495 33C15.4591 33 16.3579 32.6232 17.0443 31.9434L28.2546 20.7059C28.9328 20.0261 29.3086 19.1169 29.3086 18.1504C29.3086 17.1839 28.9328 16.2829 28.2546 15.5949L28.034 15.3738C27.0862 15.7833 26.0322 15.9963 24.9373 15.9963C20.5414 15.9963 16.9544 12.4088 16.9544 7.99404C16.9544 6.8883 17.1832 5.84809 17.5754 4.88979L17.3548 4.66865C16.6112 3.9233 15.5899 3.53834 14.544 3.61206L14.5604 3.62844ZM16.7256 14.3827C16.3498 14.7595 15.737 14.7595 15.3611 14.3827C14.6094 13.6292 13.3919 13.6292 12.6402 14.3827L12.3624 14.6612L15.0833 17.3887L15.3611 17.1102C16.8563 15.6113 19.2994 15.6113 20.811 17.1102C21.5382 17.8392 21.9386 18.8057 21.9386 19.8377C21.9386 20.8697 21.5382 21.8444 20.811 22.5651L20.5332 22.8436L21.2196 23.5316C21.5954 23.9084 21.5954 24.5227 21.2196 24.8995C21.0316 25.0879 20.7783 25.1861 20.5414 25.1861C20.3044 25.1861 20.043 25.0879 19.8632 24.8995L19.1769 24.2115L18.899 24.4899C18.1718 25.2189 17.2077 25.6202 16.1782 25.6202C15.1487 25.6202 14.1763 25.2189 13.4573 24.4899C13.0814 24.1132 13.0814 23.4989 13.4573 23.1221C13.8332 22.7453 14.446 22.7453 14.8218 23.1221C15.5735 23.8756 16.791 23.8756 17.5427 23.1221L17.8205 22.8436L15.0915 20.1162L14.8137 20.3946C13.3184 21.8935 10.8753 21.8935 9.36373 20.3946C8.63653 19.6657 8.23616 18.6992 8.23616 17.6672C8.23616 16.6351 8.63653 15.6605 9.36373 14.9397L9.64154 14.6612L8.95519 13.9732C8.57934 13.5964 8.57934 12.9821 8.95519 12.6054C9.33105 12.2286 9.94386 12.2286 10.3197 12.6054L11.0061 13.2934L11.2839 13.0149C12.7791 11.516 15.2222 11.516 16.7338 13.0149C17.1096 13.3917 17.1096 13.9978 16.7338 14.3827H16.7256Z" fill="white"/>
<path d="M10.7364 19.0186C11.4881 19.7722 12.7056 19.7722 13.4573 19.0186L13.7351 18.7401L11.0142 16.0127L10.7364 16.2911C9.98471 17.0365 9.98471 18.2651 10.7364 19.0186Z" fill="white"/>
<path d="M3.25198 8.28071C3.25198 8.65748 3.39905 9.00968 3.66052 9.27178C3.92198 9.53388 4.2815 9.68131 4.64918 9.68131C5.01687 9.68131 5.37638 9.53388 5.63785 9.27178C5.89931 9.00968 6.04639 8.64929 6.04639 8.28071C6.04639 7.91213 5.89931 7.55175 5.63785 7.28965C5.63785 7.28965 5.62151 7.27327 5.61334 7.26508V8.28071C5.61334 8.8131 5.18028 9.24721 4.64918 9.24721C4.11808 9.24721 3.68503 8.8131 3.68503 8.28071V7.26508C3.68503 7.26508 3.66869 7.28146 3.66052 7.28965C3.39905 7.55175 3.25198 7.91213 3.25198 8.28071Z" fill="white"/>
<path d="M3.68503 4.44751V8.28071C3.68503 8.8131 4.11808 9.24721 4.64918 9.24721C5.18028 9.24721 5.61334 8.8131 5.61334 8.28071V0.966493C5.61334 0.434103 5.18028 0 4.64918 0C4.11808 0 3.68503 0.434103 3.68503 0.966493V4.44751Z" fill="white"/>
<path d="M24.9454 1.93298C21.6118 1.93298 18.8909 4.65227 18.8909 8.00223C18.8909 11.3522 21.6036 14.0715 24.9454 14.0715C28.2873 14.0715 31 11.3522 31 8.00223C31 4.65227 28.2873 1.93298 24.9454 1.93298ZM28.6386 6.6344L24.5451 10.7379C24.3571 10.9263 24.1039 11.0246 23.8669 11.0246C23.6299 11.0246 23.3685 10.9263 23.1887 10.7379L21.2522 8.79672C20.8764 8.41995 20.8764 7.80566 21.2522 7.42889C21.6281 7.05212 22.2409 7.05212 22.6168 7.42889L23.8669 8.68205L27.2741 5.26656C27.65 4.8898 28.2628 4.8898 28.6386 5.26656C29.0145 5.64333 29.0145 6.25763 28.6386 6.6344Z" fill="white"/>
<path d="M23.8669 11.0164C23.6218 11.0164 23.3685 10.9181 23.1887 10.7297C23.3766 10.9263 23.6299 11.0164 23.8669 11.0164C24.1038 11.0164 24.3653 10.9181 24.5451 10.7297C24.3571 10.9263 24.1038 11.0164 23.8669 11.0164Z" fill="white"/>
</g>
<defs>
<clipPath id="clip0_1_1143">
<rect width="31" height="33" fill="white"/>
</clipPath>
</defs>
</svg>
